<svg width="20" height="21" viewBox="0 0 20 21" fill="none" xmlns="http://www.w3.org/2000/svg">
<path fill-rule="evenodd" clip-rule="evenodd" d="M9.00012 1.5C7.75748 1.5 6.75012 2.50736 6.75012 3.75V4.75C6.75012 5.16421 6.41434 5.5 6.00012 5.5C5.58591 5.5 5.25012 5.16421 5.25012 4.75V3.75C5.25012 1.67893 6.92905 0 9.00012 0H11.0001C13.0712 0 14.7501 1.67893 14.7501 3.75V4.75C14.7501 5.16421 14.4143 5.5 14.0001 5.5C13.5859 5.5 13.2501 5.16421 13.2501 4.75V3.75C13.2501 2.50736 12.2428 1.5 11.0001 1.5H9.00012Z" fill="#7152F3"/>
<path d="M4 4.75H16C18.2091 4.75 20 6.54086 20 8.75C20 8.75 17.648 11.0517 11.6848 11.3C11.5789 11.3044 11.4876 11.2241 11.4647 11.1206C11.3164 10.4483 10.7169 9.94531 10 9.94531C9.30438 9.94531 8.71935 10.4188 8.54966 11.0611C8.52267 11.1632 8.42878 11.2395 8.32345 11.2314C2.34828 10.7723 0 8.75 0 8.75C0 6.54086 1.79086 4.75 4 4.75Z" fill="#7152F3"/>
<path d="M8.5 12.6333C8.5 12.5282 8.41729 12.4411 8.31256 12.4331C3.6231 12.0773 1.00088 10.8437 0 10.2626V16.75C0 18.9592 1.79086 20.75 4 20.75H16C18.2091 20.75 20 18.9592 20 16.75V10.3044C18.9969 10.9617 16.3689 12.3355 11.6942 12.5394C11.5867 12.5441 11.5 12.6324 11.5 12.7401V12.8453C11.5 13.6737 10.8284 14.3453 10 14.3453C9.17157 14.3453 8.5 13.6737 8.5 12.8453V12.6333Z" fill="#7152F3"/>
<rect x="9.25012" y="10.75" width="1.5" height="2.79403" rx="0.75" fill="#7152F3"/>
</svg>
