<svg width="24" height="24" viewBox="0 0 24 24" fill="none" xmlns="http://www.w3.org/2000/svg">
<path d="M17.4922 4.03027C19.4689 4.27306 21 5.95767 21 8V18C21 20.2091 19.2091 22 17 22H7C4.79086 22 3.00001 20.2091 3 18V8C3 5.95767 4.53111 4.27306 6.50781 4.03027C6.50296 4.1029 6.5 4.17615 6.5 4.25C6.50001 6.04492 7.95508 7.5 9.75 7.5H14.25C16.0449 7.5 17.5 6.04492 17.5 4.25C17.5 4.17615 17.497 4.1029 17.4922 4.03027ZM8 17.25C7.58579 17.25 7.25 17.5858 7.25 18C7.25 18.4142 7.58579 18.75 8 18.75H12C12.4142 18.75 12.75 18.4142 12.75 18C12.75 17.5858 12.4142 17.25 12 17.25H8ZM8 13.25C7.58579 13.25 7.25 13.5858 7.25 14C7.25 14.4142 7.58579 14.75 8 14.75H16C16.4142 14.75 16.75 14.4142 16.75 14C16.75 13.5858 16.4142 13.25 16 13.25H8ZM8 9.25C7.58579 9.25 7.25 9.58579 7.25 10C7.25 10.4142 7.58579 10.75 8 10.75H16C16.4142 10.75 16.75 10.4142 16.75 10C16.75 9.58579 16.4142 9.25 16 9.25H8ZM14 2C15.1046 2 16 2.89543 16 4C16 5.10457 15.1046 6 14 6H10C8.89543 6 8 5.10457 8 4C8 2.89543 8.89543 2 10 2H14Z" fill="#7152F3"/>
</svg>
