<svg width="124" height="50" viewBox="0 0 124 50" fill="none" xmlns="http://www.w3.org/2000/svg">
<g clip-path="url(#clip0_3314_2109)">
<rect x="0.242676" y="6.7959" width="36.4078" height="36.4078" rx="18.2039" fill="#8D75F5"/>
<path d="M27.3191 26.6295C27.3191 27.9176 27.0613 29.0259 26.5733 29.8351C25.9469 30.8746 24.9732 31.4245 23.7578 31.4245C21.438 31.4245 19.8784 28.5142 18.2278 25.4333C17.0285 23.1953 15.5401 20.4104 14.3163 20.4104C13.7266 20.4104 13.0038 21.1271 12.4301 22.2805C11.7739 23.6374 11.4255 25.1224 11.4098 26.6295C11.4098 27.5703 11.5811 28.3719 11.8916 28.8874C12.18 29.3662 12.5754 29.5888 13.1353 29.5888C14.187 29.5888 15.4781 27.3707 15.9026 26.6448C16.0252 26.4345 16.2264 26.2814 16.4619 26.2194C16.6973 26.1574 16.9478 26.1914 17.1582 26.314C17.3685 26.4367 17.5215 26.6378 17.5836 26.8733C17.6456 27.1087 17.6116 27.3592 17.489 27.5696C16.8075 28.7383 16.2246 29.5582 15.6533 30.1533C14.8326 31.0084 14.0103 31.4245 13.1353 31.4245C11.92 31.4245 10.9463 30.8746 10.3198 29.8351C9.83186 29.0259 9.5741 27.9176 9.5741 26.6295C9.5741 23.2664 11.3777 18.5747 14.3163 18.5747C16.6361 18.5747 18.1957 21.485 19.8463 24.5659C21.0471 26.8039 22.5363 29.5888 23.7578 29.5888C24.3177 29.5888 24.7131 29.3662 25.0015 28.8874C25.312 28.3719 25.4834 27.5703 25.4834 26.6295C25.4679 25.1225 25.1197 23.6374 24.4638 22.2805C23.8902 21.1271 23.1673 20.4104 22.5769 20.4104C22.1394 20.4104 21.6124 20.7928 21.0097 21.5447C20.8575 21.7348 20.6361 21.8566 20.3941 21.8834C20.1521 21.9103 19.9094 21.8399 19.7193 21.6877C19.5292 21.5356 19.4074 21.3142 19.3806 21.0722C19.3537 20.8302 19.4241 20.5875 19.5763 20.3974C20.5591 19.1713 21.5405 18.5747 22.5769 18.5747C23.9269 18.5747 25.1774 19.6004 26.1067 21.4629C26.8863 23.0748 27.3002 24.8391 27.3191 26.6295Z" fill="white"/>
<path d="M58.0393 35.3219V15.8244H61.0475V35.3219H58.0393ZM45.3102 35.3219V15.8244H48.3184V35.3219H45.3102ZM46.6193 27.0494V24.1527H59.3762V27.0494H46.6193Z" fill="#16151C"/>
<path d="M66.4996 35.3219V15.8244H74.7999C75.9141 15.8244 76.9354 16.103 77.8638 16.66C78.8109 17.1985 79.5629 17.9413 80.12 18.8883C80.677 19.8168 80.9556 20.8659 80.9556 22.0358C80.9556 23.0942 80.677 24.0784 80.12 24.9883C79.5629 25.8981 78.8201 26.6316 77.8917 27.1887C76.9632 27.7272 75.9327 27.9964 74.7999 27.9964H69.5078V35.3219H66.4996ZM78.0867 35.3219L73.1287 26.5202L76.2205 25.8239L81.7355 35.3498L78.0867 35.3219ZM69.5078 25.0997H75.0785C75.617 25.0997 76.0998 24.9697 76.5269 24.7097C76.9539 24.4312 77.2882 24.0598 77.5296 23.5956C77.771 23.1128 77.8917 22.5836 77.8917 22.0079C77.8917 21.358 77.7338 20.7917 77.4182 20.3089C77.1211 19.8075 76.694 19.4175 76.1369 19.139C75.5984 18.8605 74.9856 18.7212 74.2986 18.7212H69.5078V25.0997Z" fill="#16151C"/>
<path d="M85.8665 35.3219V15.8244H88.819L95.9217 27.3837L94.5011 27.3558L101.687 15.8244H104.473V35.3219H101.465V27.328C101.465 25.6567 101.502 24.1527 101.576 22.8157C101.669 21.4787 101.817 20.151 102.022 18.8326L102.412 19.8632L96.0331 29.7234H94.1947L88.0112 19.9746L88.3176 18.8326C88.5219 20.0767 88.6612 21.358 88.7354 22.6764C88.8283 23.9762 88.8747 25.5268 88.8747 27.328V35.3219H85.8665Z" fill="#16151C"/>
<path d="M115.956 35.6005C114.897 35.6005 113.913 35.4612 113.003 35.1827C112.112 34.9041 111.295 34.4863 110.552 33.9293C109.828 33.3536 109.178 32.648 108.602 31.8124L110.663 29.4448C111.573 30.7447 112.446 31.6453 113.282 32.1466C114.117 32.648 115.111 32.8987 116.262 32.8987C116.968 32.8987 117.608 32.7873 118.184 32.5644C118.759 32.3416 119.214 32.0352 119.549 31.6453C119.883 31.2553 120.05 30.8097 120.05 30.3083C120.05 29.9741 119.994 29.6584 119.883 29.3613C119.772 29.0642 119.595 28.7949 119.354 28.5535C119.131 28.3121 118.834 28.0893 118.462 27.885C118.11 27.6808 117.692 27.5044 117.209 27.3558C116.726 27.1887 116.169 27.0494 115.538 26.938C114.535 26.7338 113.662 26.4645 112.92 26.1303C112.177 25.796 111.555 25.3782 111.053 24.8768C110.552 24.3755 110.181 23.8091 109.939 23.1778C109.698 22.5279 109.577 21.8037 109.577 21.0052C109.577 20.2253 109.744 19.5011 110.078 18.8326C110.431 18.1641 110.905 17.5885 111.499 17.1057C112.112 16.6043 112.827 16.2237 113.644 15.9637C114.461 15.6852 115.343 15.5459 116.29 15.5459C117.293 15.5459 118.212 15.6759 119.047 15.9358C119.883 16.1958 120.626 16.5858 121.276 17.1057C121.926 17.6071 122.464 18.2291 122.891 18.9719L120.774 21.0609C120.403 20.4481 119.985 19.9375 119.521 19.529C119.057 19.1019 118.546 18.7862 117.989 18.5819C117.432 18.3591 116.838 18.2477 116.206 18.2477C115.482 18.2477 114.851 18.3591 114.312 18.5819C113.774 18.8048 113.347 19.1204 113.031 19.529C112.734 19.9189 112.585 20.3831 112.585 20.9216C112.585 21.3116 112.66 21.6737 112.808 22.0079C112.957 22.3236 113.179 22.6114 113.477 22.8714C113.792 23.1128 114.21 23.3356 114.73 23.5399C115.25 23.7256 115.872 23.8927 116.596 24.0412C117.617 24.2641 118.527 24.5519 119.326 24.9047C120.124 25.2389 120.802 25.6382 121.359 26.1024C121.916 26.5666 122.334 27.0866 122.613 27.6622C122.91 28.2378 123.058 28.8599 123.058 29.5284C123.058 30.7725 122.77 31.8495 122.195 32.7594C121.619 33.6693 120.802 34.3749 119.744 34.8763C118.685 35.3591 117.423 35.6005 115.956 35.6005Z" fill="#16151C"/>
</g>
<defs>
<clipPath id="clip0_3314_2109">
<rect width="123.058" height="50" fill="white"/>
</clipPath>
</defs>
</svg>
